<svg width="504" height="304" viewBox="0 0 504 304" fill="none" xmlns="http://www.w3.org/2000/svg">
<path d="M504 152C504 235.2 436.8 303.2 352.8 303.2C269.6 303.2 201.6 235.2 201.6 152C201.6 68.8 268.8 0.799988 352 0.799988C436.8 0.799988 504 68.8 504 152Z" fill="#FFB600"/>
<path d="M352.8 0.799988C436 0.799988 504 68.8 504 152C504 235.2 436.8 303.2 352.8 303.2C269.6 303.2 201.6 235.2 201.6 152" fill="#F7981D"/>
<path d="M352.8 0.799988C436 0.799988 504 68.8 504 152C504 235.2 436.8 303.2 352.8 303.2" fill="#FF8500"/>
<path d="M149.6 0.799988C67.2 1.59999 0 68.8 0 152C0 235.2 67.2 303.2 151.2 303.2C190.4 303.2 225.6 288 252.8 264C258.4 259.2 263.2 253.6 268 248H236.8C232.8 243.2 228.8 237.6 225.6 232.8H279.2C282.4 228 285.6 222.4 288 216.8H216.8C214.4 212 212 206.4 210.4 200.8H293.6C298.4 185.6 301.6 169.6 301.6 152.8C301.6 141.6 300 131.2 298.4 120.8H205.6C206.4 115.2 208 110.4 209.6 104.8H292.8C291.2 99.2 288.8 93.6 286.4 88.8H216C218.4 83.2 221.6 78.4 224.8 72.8H278.4C275.2 67.2 271.2 61.6 266.4 56.8H236.8C241.6 51.2 246.4 46.4 252 41.6C225.6 16.8 189.6 2.39999 150.4 2.39999C150.4 0.799986 150.4 0.799988 149.6 0.799988Z" fill="#FF5050"/>
<path d="M0 152C0 235.2 67.2 303.2 151.2 303.2C190.4 303.2 225.6 288 252.8 264C258.4 259.2 263.2 253.6 268 248H236.8C232.8 243.2 228.8 237.6 225.6 232.8H279.2C282.4 228 285.6 222.4 288 216.8H216.8C214.4 212 212 206.4 210.4 200.8H293.6C298.4 185.6 301.6 169.6 301.6 152.8C301.6 141.6 300 131.2 298.4 120.8H205.6C206.4 115.2 208 110.4 209.6 104.8H292.8C291.2 99.2 288.8 93.6 286.4 88.8H216C218.4 83.2 221.6 78.4 224.8 72.8H278.4C275.2 67.2 271.2 61.6 266.4 56.8H236.8C241.6 51.2 246.4 46.4 252 41.6C225.6 16.8 189.6 2.40002 150.4 2.40002H149.6" fill="#E52836"/>
<path d="M151.2 303.2C190.4 303.2 225.6 288 252.8 264C258.4 259.2 263.2 253.6 268 248H236.8C232.8 243.2 228.8 237.6 225.6 232.8H279.2C282.4 228 285.6 222.4 288 216.8H216.8C214.4 212 212 206.4 210.4 200.8H293.6C298.4 185.6 301.6 169.6 301.6 152.8C301.6 141.6 300 131.2 298.4 120.8H205.6C206.4 115.2 208 110.4 209.6 104.8H292.8C291.2 99.2 288.8 93.6 286.4 88.8H216C218.4 83.2 221.6 78.4 224.8 72.8H278.4C275.2 67.2 271.2 61.6 266.4 56.8H236.8C241.6 51.2 246.4 46.4 252 41.6C225.6 16.8 189.6 2.40002 150.4 2.40002H149.6" fill="#CB2026"/>
<path d="M204.8 190.4L207.2 176.8C206.4 176.8 204.8 177.6 203.2 177.6C197.6 177.6 196.8 174.4 197.6 172.8L202.4 144.8H211.2L213.6 129.6H205.6L207.2 120H191.2C191.2 120 181.6 172.8 181.6 179.2C181.6 188.8 187.2 192.8 194.4 192.8C199.2 192.8 203.2 191.2 204.8 190.4Z" fill="white"/>
<path d="M210.4 164.8C210.4 187.2 225.6 192.8 238.4 192.8C250.4 192.8 255.2 190.4 255.2 190.4L258.4 175.2C258.4 175.2 249.6 179.2 241.6 179.2C224 179.2 227.2 166.4 227.2 166.4H260C260 166.4 262.4 156 262.4 152C262.4 141.6 256.8 128.8 239.2 128.8C222.4 127.2 210.4 144.8 210.4 164.8ZM238.4 141.6C247.2 141.6 245.6 152 245.6 152.8H228C228 152 229.6 141.6 238.4 141.6Z" fill="white"/>
<path d="M340 190.4L343.2 172.8C343.2 172.8 335.2 176.8 329.6 176.8C318.4 176.8 313.6 168 313.6 158.4C313.6 139.2 323.2 128.8 334.4 128.8C342.4 128.8 348.8 133.6 348.8 133.6L351.2 116.8C351.2 116.8 341.6 112.8 332.8 112.8C314.4 112.8 296 128.8 296 159.2C296 179.2 305.6 192.8 324.8 192.8C331.2 192.8 340 190.4 340 190.4Z" fill="white"/>
<path d="M116.8 127.2C105.6 127.2 97.5999 130.4 97.5999 130.4L95.1999 144C95.1999 144 102.4 140.8 112.8 140.8C118.4 140.8 123.2 141.6 123.2 146.4C123.2 149.6 122.4 150.4 122.4 150.4C122.4 150.4 117.6 150.4 115.2 150.4C101.6 150.4 86.3999 156 86.3999 174.4C86.3999 188.8 95.9999 192 101.6 192C112.8 192 117.6 184.8 118.4 184.8L117.6 191.2H132L138.4 147.2C138.4 128 122.4 127.2 116.8 127.2ZM120 163.2C120 165.6 118.4 178.4 108.8 178.4C104 178.4 102.4 174.4 102.4 172C102.4 168 104.8 162.4 116.8 162.4C119.2 163.2 120 163.2 120 163.2Z" fill="white"/>
<path d="M153.6 192C157.6 192 177.6 192.8 177.6 171.2C177.6 151.2 158.4 155.2 158.4 147.2C158.4 143.2 161.6 141.6 167.2 141.6C169.6 141.6 178.4 142.4 178.4 142.4L180.8 128C180.8 128 175.2 126.4 165.6 126.4C153.6 126.4 141.6 131.2 141.6 147.2C141.6 165.6 161.6 164 161.6 171.2C161.6 176 156 176.8 152 176.8C144.8 176.8 137.6 174.4 137.6 174.4L135.2 188.8C136 190.4 140 192 153.6 192Z" fill="white"/>
<path d="M472.8 114.4L469.6 136C469.6 136 463.2 128 454.4 128C440 128 427.2 145.6 427.2 166.4C427.2 179.2 433.6 192.8 447.2 192.8C456.8 192.8 462.4 186.4 462.4 186.4L461.6 192H477.6L489.6 115.2L472.8 114.4ZM465.6 156.8C465.6 165.6 461.6 176.8 452.8 176.8C447.2 176.8 444 172 444 164C444 151.2 449.6 143.2 456.8 143.2C462.4 143.2 465.6 147.2 465.6 156.8Z" fill="white"/>
<path d="M29.5999 191.2L39.1999 133.6L40.7999 191.2H51.9999L72.7999 133.6L63.9999 191.2H80.7999L93.5999 114.4H67.1999L51.1999 161.6L50.3999 114.4H27.1999L14.3999 191.2H29.5999Z" fill="white"/>
<path d="M277.6 191.2C282.4 164.8 283.2 143.2 294.4 147.2C296 136.8 298.4 132.8 300 128.8C300 128.8 299.2 128.8 296.8 128.8C289.6 128.8 284 138.4 284 138.4L285.6 129.6H270.4L260 192H277.6V191.2Z" fill="white"/>
<path d="M376.8 127.2C365.6 127.2 357.6 130.4 357.6 130.4L355.2 144C355.2 144 362.4 140.8 372.8 140.8C378.4 140.8 383.2 141.6 383.2 146.4C383.2 149.6 382.4 150.4 382.4 150.4C382.4 150.4 377.6 150.4 375.2 150.4C361.6 150.4 346.4 156 346.4 174.4C346.4 188.8 356 192 361.6 192C372.8 192 377.6 184.8 378.4 184.8L377.6 191.2H392L398.4 147.2C399.2 128 382.4 127.2 376.8 127.2ZM380.8 163.2C380.8 165.6 379.2 178.4 369.6 178.4C364.8 178.4 363.2 174.4 363.2 172C363.2 168 365.6 162.4 377.6 162.4C380 163.2 380 163.2 380.8 163.2Z" fill="white"/>
<path d="M412 191.2C416.8 164.8 417.6 143.2 428.8 147.2C430.4 136.8 432.8 132.8 434.4 128.8C434.4 128.8 433.6 128.8 431.2 128.8C424 128.8 418.4 138.4 418.4 138.4L420 129.6H404.8L394.4 192H412V191.2Z" fill="white"/>
<path d="M180 179.2C180 188.8 185.6 192.8 192.8 192.8C198.4 192.8 203.2 191.2 204.8 190.4L207.2 176.8C206.4 176.8 204.8 177.6 203.2 177.6C197.6 177.6 196.8 174.4 197.6 172.8L202.4 144.8H211.2L213.6 129.6H205.6L207.2 120" fill="#DCE5E5"/>
<path d="M218.4 164.8C218.4 187.2 225.6 192.8 238.4 192.8C250.4 192.8 255.2 190.4 255.2 190.4L258.4 175.2C258.4 175.2 249.6 179.2 241.6 179.2C224 179.2 227.2 166.4 227.2 166.4H260C260 166.4 262.4 156 262.4 152C262.4 141.6 256.8 128.8 239.2 128.8C222.4 127.2 218.4 144.8 218.4 164.8ZM238.4 141.6C247.2 141.6 248.8 152 248.8 152.8H228C228 152 229.6 141.6 238.4 141.6Z" fill="#DCE5E5"/>
<path d="M340 190.4L343.2 172.8C343.2 172.8 335.2 176.8 329.6 176.8C318.4 176.8 313.6 168 313.6 158.4C313.6 139.2 323.2 128.8 334.4 128.8C342.4 128.8 348.8 133.6 348.8 133.6L351.2 116.8C351.2 116.8 341.6 112.8 332.8 112.8C314.4 112.8 304 128.8 304 159.2C304 179.2 305.6 192.8 324.8 192.8C331.2 192.8 340 190.4 340 190.4Z" fill="#DCE5E5"/>
<path d="M95.1999 144.8C95.1999 144.8 102.4 141.6 112.8 141.6C118.4 141.6 123.2 142.4 123.2 147.2C123.2 150.4 122.4 151.2 122.4 151.2C122.4 151.2 117.6 151.2 115.2 151.2C101.6 151.2 86.3999 156.8 86.3999 175.2C86.3999 189.6 95.9999 192.8 101.6 192.8C112.8 192.8 117.6 185.6 118.4 185.6L117.6 192H132L138.4 148C138.4 129.6 122.4 128.8 116 128.8L95.1999 144.8ZM128 163.2C128 165.6 118.4 178.4 108.8 178.4C104 178.4 102.4 174.4 102.4 172C102.4 168 104.8 162.4 116.8 162.4C119.2 163.2 128 163.2 128 163.2Z" fill="#DCE5E5"/>
<path d="M136 190.4C136 190.4 140.8 192 154.4 192C158.4 192 178.4 192.8 178.4 171.2C178.4 151.2 159.2 155.2 159.2 147.2C159.2 143.2 162.4 141.6 168 141.6C170.4 141.6 179.2 142.4 179.2 142.4L181.6 128C181.6 128 176 126.4 166.4 126.4C154.4 126.4 150.4 131.2 150.4 147.2C150.4 165.6 162.4 164 162.4 171.2C162.4 176 156.8 176.8 152.8 176.8" fill="#DCE5E5"/>
<path d="M469.6 136C469.6 136 463.2 128 454.4 128C440 128 435.2 145.6 435.2 166.4C435.2 179.2 433.6 192.8 447.2 192.8C456.8 192.8 462.4 186.4 462.4 186.4L461.6 192H477.6L489.6 115.2L469.6 136ZM468.8 156.8C468.8 165.6 461.6 176.8 452.8 176.8C447.2 176.8 444 172 444 164C444 151.2 449.6 143.2 456.8 143.2C462.4 143.2 468.8 147.2 468.8 156.8Z" fill="#DCE5E5"/>
<path d="M29.5999 191.2L39.1999 133.6L40.7999 191.2H51.9999L72.7999 133.6L63.9999 191.2H80.7999L93.5999 114.4H73.5999L51.1999 161.6L50.3999 114.4H41.5999L14.3999 191.2H29.5999Z" fill="#DCE5E5"/>
<path d="M260.8 191.2H277.6C282.4 164.8 283.2 143.2 294.4 147.2C296 136.8 298.4 132.8 300 128.8C300 128.8 299.2 128.8 296.8 128.8C289.6 128.8 284 138.4 284 138.4L285.6 129.6" fill="#DCE5E5"/>
<path d="M355.2 144.8C355.2 144.8 362.4 141.6 372.8 141.6C378.4 141.6 383.2 142.4 383.2 147.2C383.2 150.4 382.4 151.2 382.4 151.2C382.4 151.2 377.6 151.2 375.2 151.2C361.6 151.2 346.4 156.8 346.4 175.2C346.4 189.6 356 192.8 361.6 192.8C372.8 192.8 377.6 185.6 378.4 185.6L377.6 192H392L398.4 148C398.4 129.6 382.4 128.8 376 128.8L355.2 144.8ZM388 163.2C388 165.6 378.4 178.4 368.8 178.4C364 178.4 362.4 174.4 362.4 172C362.4 168 364.8 162.4 376.8 162.4C380 163.2 388 163.2 388 163.2Z" fill="#DCE5E5"/>
<path d="M395.2 191.2H412C416.8 164.8 417.6 143.2 428.8 147.2C430.4 136.8 432.8 132.8 434.4 128.8C434.4 128.8 433.6 128.8 431.2 128.8C424 128.8 418.4 138.4 418.4 138.4L420 129.6" fill="#DCE5E5"/>
</svg>
