<svg width="292" height="92" viewBox="0 0 292 92" fill="none" xmlns="http://www.w3.org/2000/svg">
<path d="M119.259 0.22998L104.616 91.352H128.021L142.655 0.22998C142.655 0.22998 119.259 0.22998 119.259 0.22998ZM189.857 37.348C181.678 33.309 176.664 30.583 176.664 26.452C176.764 22.696 180.904 18.848 190.149 18.848C197.753 18.657 203.342 20.444 207.582 22.222L209.706 23.17L212.888 4.10498C208.265 2.31798 200.935 0.348976 191.881 0.348976C168.768 0.348976 152.493 12.366 152.392 29.553C152.201 42.236 164.044 49.274 172.907 53.496C181.961 57.827 185.043 60.635 185.043 64.483C184.943 70.391 177.722 73.117 170.984 73.117C161.648 73.117 156.633 71.713 149.02 68.421L145.938 67.017L142.665 86.83C148.163 89.274 158.274 91.425 168.769 91.535C193.332 91.535 209.315 79.7 209.516 61.383C209.596 51.335 203.351 43.639 189.857 37.348ZM272.891 0.511978H254.783C249.203 0.511978 244.963 2.11698 242.547 7.84298L207.781 91.352H232.344L239.109 73.272H266.59L270.1 91.425H291.764L272.891 0.511978ZM245.921 55.026C246.395 55.072 255.349 25.512 255.349 25.512L262.479 55.026C262.479 55.026 250.544 55.026 245.921 55.026ZM85.059 0.22998L62.128 62.139L59.63 49.93C55.39 35.843 42.097 20.535 27.262 12.931L48.26 91.261H73.024L109.823 0.239975H85.059V0.22998Z" fill="#2394BC"/>
<path d="M51.916 11.982C50.129 5.03399 44.43 0.347986 36.69 0.247986H0.374L0 1.93398C28.329 8.91798 52.107 30.408 59.821 50.622L51.916 11.982Z" fill="#EFC75E"/>
</svg>
